# xmcd
#
# Track frame offsets: 
#        150
#        11712
#        31431
#        41844
#        48097
#        58398
#        68498
#        87712
#        98774
#        113271
#        128160
#        144467
#        158306
#        168945
#        183532
#        198178
#        205653
#        214795
#        229387
#        242615
#        259022
#
# Disc length: 3796 seconds
#
# Revision: 0
# Processed by: cddbd v1.5.2PL0 Copyright (c) Steve Scherf et al.
# Submitted via: ExactAudioCopy v1.1
#
DISCID=1c0ed215
DTITLE=Chris Kramer - Die kleine Mundharmonika
DYEAR=1900
DGENRE=
TTITLE0=Ich bin die kleine Mundharmonika
TTITLE1=Isil Calad
TTITLE2=Go down Moses
TTITLE3=Take this hammer
TTITLE4=Ich kann alle Töne kriegen
TTITLE5=Am Anfang war der Rhythmus
TTITLE6=Morgen beginnt meine Reise
TTITLE7=Geh deinen Weg
TTITLE8=Der Banjo Man
TTITLE9=Ich bin die weiße Wanderwolke
TTITLE10=Froschkönig Blues
TTITLE11=Lass uns tanzen gehen
TTITLE12=Traum 2: Lumbo I Lome
TTITLE13=Der Muskelkater
TTITLE14=Fluss ohne Wasser
TTITLE15=Beatbox'n'Blues
TTITLE16=Echt, echt
TTITLE17=Könige der Sonne Rap
TTITLE18=Electric harp
TTITLE19=Du bist frei
TTITLE20=Was in dir steckt
EXTD=
EXTT0=
EXTT1=
EXTT2=
EXTT3=
EXTT4=
EXTT5=
EXTT6=
EXTT7=
EXTT8=
EXTT9=
EXTT10=
EXTT11=
EXTT12=
EXTT13=
EXTT14=
EXTT15=
EXTT16=
EXTT17=
EXTT18=
EXTT19=
EXTT20=
PLAYORDER=
